<svg width="20" height="20" fill="none" xmlns="http://www.w3.org/2000/svg"><path fill-rule="evenodd" clip-rule="evenodd" d="M10 20c5.523 0 10-4.477 10-10S15.523 0 10 0 0 4.477 0 10s4.477 10 10 10z" fill="#F8931F"/><path fill-rule="evenodd" clip-rule="evenodd" d="M12.572 13.186a1.07 1.07 0 0 1-.511.645 1.03 1.03 0 0 1-.807.085l-2.716-.828.605-2.08 2.716.829c.56.17.88.776.713 1.35zm.917-4.262a1.1 1.1 0 0 1 .083.826c-.167.573-.758.9-1.318.73l-2.717-.828.605-2.08 2.717.829c.271.083.495.268.63.523zm1.216-.673a2.44 2.44 0 0 0-1.451-1.207l-.36-.109.503-1.73-1.29-.393-.504 1.73-1.102-.337.503-1.729-.309-.094L9.442 4l-.485 1.667L7.43 5.2 7 6.682l1.526.466-1.568 5.39-1.527-.465L5 13.554l1.527.466-.41 1.407.31.094 1.252.382.428-1.47 1.105.337-.428 1.47 1.286.392.427-1.47.362.11a2.384 2.384 0 0 0 1.86-.197 2.473 2.473 0 0 0 1.179-1.485 2.545 2.545 0 0 0-.213-1.934 2.48 2.48 0 0 0 1.212-1.502 2.536 2.536 0 0 0-.192-1.903z" fill="#fff"/></svg>