<svg width="65" height="65" fill="none" xmlns="http://www.w3.org/2000/svg"><path fill-rule="evenodd" clip-rule="evenodd" d="M32.5 65C50.45 65 65 50.45 65 32.5S50.45 0 32.5 0 0 14.55 0 32.5 14.55 65 32.5 65z" fill="#B9F4BC"/><path d="M32.075 31.85c-3.345-.885-4.42-1.8-4.42-3.225 0-1.635 1.487-2.775 3.978-2.775 2.622 0 3.595 1.275 3.683 3.15h3.257c-.104-2.58-1.65-4.95-4.73-5.715V20h-4.42v3.24c-2.86.63-5.158 2.52-5.158 5.415 0 3.465 2.815 5.19 6.926 6.195 3.683.9 4.42 2.22 4.42 3.615 0 1.035-.722 2.685-3.978 2.685-3.036 0-4.23-1.38-4.391-3.15H24c.177 3.285 2.593 5.13 5.422 5.745V47h4.42v-3.225C36.717 43.22 39 41.525 39 38.45c0-4.26-3.58-5.715-6.925-6.6z" fill="#1BB978"/></svg>