<svg width="65" height="65" fill="none" xmlns="http://www.w3.org/2000/svg"><path fill-rule="evenodd" clip-rule="evenodd" d="M32.5 65C50.45 65 65 50.45 65 32.5S50.45 0 32.5 0 0 14.55 0 32.5 14.55 65 32.5 65z" fill="#B9F4BC"/><path fill-rule="evenodd" clip-rule="evenodd" d="M34.137 31.29c-1.76 1.34-3.762 2.865-3.762 6.71h4.25c0-2.313 1.51-3.624 3.062-4.97C39.32 31.61 41 30.152 41 27.444 41 22.78 37.196 19 32.5 19S24 22.779 24 27.444h4.25c0-2.322 1.913-4.222 4.25-4.222 2.337 0 4.25 1.9 4.25 4.222 0 1.857-1.232 2.795-2.613 3.846zM30 46h4v-4h-4v4z" fill="#13B675"/></svg>