<svg width="65" height="65" fill="none" xmlns="http://www.w3.org/2000/svg"><path fill-rule="evenodd" clip-rule="evenodd" d="M32.5 65C50.45 65 65 50.45 65 32.5S50.45 0 32.5 0 0 14.55 0 32.5 14.55 65 32.5 65z" fill="#B9F4BC"/><path fill-rule="evenodd" clip-rule="evenodd" d="M32.5 21.75c-6.169 0-11.182 5.044-11.182 11.25h5.591l-7.454 7.5L12 33h5.59c0-8.288 6.673-15 14.91-15 2.926 0 5.647.863 7.94 2.325l-2.722 2.738A10.888 10.888 0 0 0 32.5 21.75zM38.09 33l7.455-7.5L53 33h-5.59c0 8.288-6.673 15-14.91 15-2.926 0-5.647-.862-7.94-2.325l2.722-2.737A10.888 10.888 0 0 0 32.5 44.25c6.169 0 11.182-5.044 11.182-11.25H38.09z" fill="#1BB978"/></svg>