<svg width="65" height="65" fill="none" xmlns="http://www.w3.org/2000/svg"><path fill-rule="evenodd" clip-rule="evenodd" d="M32.5 65C50.45 65 65 50.45 65 32.5S50.45 0 32.5 0 0 14.55 0 32.5 14.55 65 32.5 65z" fill="#B9F4BC"/><path fill-rule="evenodd" clip-rule="evenodd" d="M41.875 25.667h-1.563v-3.048c0-4.206-3.5-7.619-7.812-7.619-4.313 0-7.813 3.413-7.813 7.619v3.048h-1.562c-1.719 0-3.125 1.371-3.125 3.047v15.238C20 45.63 21.406 47 23.125 47h18.75C43.594 47 45 45.629 45 43.952V28.714c0-1.676-1.406-3.047-3.125-3.047zM32.5 39.38c-1.719 0-3.125-1.371-3.125-3.048 0-1.676 1.406-3.047 3.125-3.047s3.125 1.371 3.125 3.047c0 1.677-1.406 3.048-3.125 3.048zm-4.844-13.714h9.688v-3.048c0-2.606-2.172-4.724-4.844-4.724s-4.844 2.118-4.844 4.724v3.048z" fill="#13B675"/></svg>