<svg width="21" height="16" fill="none" xmlns="http://www.w3.org/2000/svg"><rect width="21" height="16" rx="1" fill="#fff"/><mask id="a" maskUnits="userSpaceOnUse" x="0" y="0" width="21" height="16"><rect width="21" height="16" rx="1" fill="#fff"/></mask><g mask="url(#a)"><path fill="#B22234" d="M0 0h21v16H0z"/><path fill="#3C3B6E" d="M0 0h10v9H0z"/><path fill="#fff" d="M1.429 1.286h1.429v1.286H1.429zm2.857 0h1.429v1.286H4.286zm2.857 0h1.429v1.286H7.143zm0 2.571h1.429v1.286H7.143zm-2.857 0h1.429v1.286H4.286zm-2.857 0h1.429v1.286H1.429zm5.714 2.572h1.429v1.286H7.143zm-2.857 0h1.429v1.286H4.286zm-2.857 0h1.429v1.286H1.429zM9.158 1H21v1.364H9.158zm0 2.727H21v1.364H9.158zm0 2.728H21v1.364H9.158zM-4 9.182h25v1.364H-4zm0 5.454h25V16H-4zm0-2.727h25v1.364H-4z"/><path stroke="#000" stroke-opacity=".1" d="M.5.5h20v15H.5z"/></g></svg>